<?xml version="1.0" standalone="no"?>
<!DOCTYPE svg PUBLIC "-//W3C//DTD SVG 20010904//EN"
 "http://www.w3.org/TR/2001/REC-SVG-20010904/DTD/svg10.dtd">
<svg version="1.0" xmlns="http://www.w3.org/2000/svg"
 width="310.000000pt" height="239.000000pt" viewBox="0 0 310.000000 239.000000"
 preserveAspectRatio="xMidYMid meet">
<metadata>
Created by potrace 1.16, written by Peter Selinger 2001-2019
</metadata>
<g transform="translate(0.000000,239.000000) scale(0.100000,-0.100000)"
fill="#000000" stroke="none">
<path d="M2600 1810 c0 -6 5 -8 10 -5 7 4 9 -47 8 -147 -1 -84 -3 -132 -5
-105 -2 26 -8 47 -14 47 -5 0 -9 8 -9 17 0 9 -3 13 -7 9 -5 -4 -10 -255 -13
-557 l-5 -550 30 3 30 3 0 644 c0 507 -3 645 -12 649 -7 2 -13 -1 -13 -8z"/>
<path d="M600 1720 l0 -60 308 2 307 3 0 55 0 55 -307 3 -308 2 0 -60z m355 0
l0 -35 -167 -3 -168 -2 0 40 0 40 168 -2 167 -3 0 -35z"/>
<path d="M600 1565 l0 -55 308 2 307 3 3 53 3 52 -310 0 -311 0 0 -55z m358 3
l3 -38 -170 0 -171 0 0 33 c0 19 3 37 7 41 4 3 79 5 167 4 l161 -3 3 -37z"/>
<path d="M600 1415 l0 -54 301 -3 c166 -2 305 0 311 3 5 3 8 28 6 55 l-3 49
-307 3 -308 2 0 -55z m355 -5 l0 -35 -165 0 -165 0 -3 38 -3 37 168 -2 168 -3
0 -35z"/>
<path d="M2087 1433 c3 -10 10 -24 16 -30 7 -10 2 -13 -19 -14 -16 -1 -35 0
-43 1 -9 1 -12 -4 -7 -15 3 -9 6 -19 6 -21 0 -2 84 -4 186 -4 l187 0 -91 45
c-100 50 -107 52 -98 30 3 -8 2 -15 -2 -15 -17 1 -121 28 -131 34 -7 5 -8 1
-4 -11z"/>
<path d="M600 1260 l0 -60 308 2 307 3 0 55 0 55 -307 3 -308 2 0 -60z m355 0
l0 -35 -167 -3 -168 -2 0 40 0 40 168 -2 167 -3 0 -35z"/>
<path d="M600 1110 l0 -60 308 2 307 3 0 55 0 55 -307 3 -308 2 0 -60z m355 0
l0 -35 -167 -3 -168 -2 0 40 0 40 168 -2 167 -3 0 -35z"/>
<path d="M600 955 l0 -55 310 0 310 0 0 55 0 55 -310 0 -310 0 0 -55z m358 3
c2 -28 -1 -37 -14 -40 -9 -1 -86 -2 -170 0 l-154 3 0 33 c0 18 3 36 7 40 4 3
79 5 167 4 l161 -3 3 -37z"/>
<path d="M602 803 l3 -58 305 0 305 0 0 55 0 55 -308 3 -308 2 3 -57z m353 -3
l0 -35 -167 -3 -168 -2 0 40 0 40 168 -2 167 -3 0 -35z"/>
<path d="M600 650 l0 -60 308 2 307 3 0 55 0 55 -307 3 -308 2 0 -60z m355 0
l0 -35 -167 -3 -168 -2 0 40 0 40 168 -2 167 -3 0 -35z"/>
</g>
</svg>
